<svg xmlns="http://www.w3.org/2000/svg" width="64" height="64" viewBox="0 0 64 64">
  <rect width="64" height="64" rx="14" fill="#9FE870"/>
  <path transform="translate(9 16) scale(1.3)" fill="#062F28"
    d="M29.25 11.083C29.25 11.083 29.25 11 29.25 10.917C29.25 6.108 25.392 2.25 20.583 2.25C17.667 2.25 15.075 3.717 13.5 5.958C12.708 5.583 11.833 5.333 10.917 5.333C7.667 5.333 5 8 5 11.25C5 11.417 5 11.583 5.017 11.75C3.25 12.583 2 14.4 2 16.5C2 19.533 4.467 22 7.5 22H29.25C31.875 22 34 19.875 34 17.25C34 14.458 31.958 12.158 29.25 11.083Z"/>
</svg>
